<?xml version="1.0" encoding="UTF-8" standalone="no"?>
<svg
   xmlns:dc="http://purl.org/dc/elements/1.1/"
   xmlns:cc="http://creativecommons.org/ns#"
   xmlns:rdf="http://www.w3.org/1999/02/22-rdf-syntax-ns#"
   xmlns:svg="http://www.w3.org/2000/svg"
   xmlns="http://www.w3.org/2000/svg"
   xmlns:sodipodi="http://sodipodi.sourceforge.net/DTD/sodipodi-0.dtd"
   xmlns:inkscape="http://www.inkscape.org/namespaces/inkscape"
   inkscape:version="1.0 (4035a4fb49, 2020-05-01)"
   sodipodi:docname="artstation_icon.svg"
   viewBox="0 0 682.66669 682.66669"
   height="682.66669"
   width="682.66669"
   id="svg10"
   version="1.1">
  <metadata
     id="metadata16">
    <rdf:RDF>
      <cc:Work
         rdf:about="">
        <dc:format>image/svg+xml</dc:format>
        <dc:type
           rdf:resource="http://purl.org/dc/dcmitype/StillImage" />
        <dc:title></dc:title>
      </cc:Work>
    </rdf:RDF>
  </metadata>
  <defs
     id="defs14" />
  <sodipodi:namedview
     inkscape:current-layer="layer1"
     inkscape:window-maximized="1"
     inkscape:window-y="-9"
     inkscape:window-x="-9"
     inkscape:cy="298.87573"
     inkscape:cx="312.76733"
     inkscape:zoom="1.5226273"
     showgrid="false"
     id="namedview12"
     inkscape:window-height="1001"
     inkscape:window-width="1920"
     inkscape:pageshadow="2"
     inkscape:pageopacity="0"
     guidetolerance="10"
     gridtolerance="10"
     objecttolerance="10"
     borderopacity="1"
     bordercolor="#666666"
     pagecolor="#ffffff" />
  <g
     inkscape:label="Image 1"
     id="layer1"
     inkscape:groupmode="layer">
    <path
       id="path23"
       d="M 225.33334,595.11265 C 202.7131,592.88002 174.87602,585.14891 153.37801,575.1287 125.26232,562.02399 95.155361,537.87762 75.877653,512.97188 67.459882,502.09659 57.333335,486.72667 57.333335,484.8256 c 0,-0.45406 84.150005,-0.81629 187.000005,-0.80493 l 187.00001,0.0207 17.01467,29.646 c 9.35806,16.3053 23.8668,41.49601 32.24162,55.97935 l 15.22696,26.33333 -132.90829,-0.21339 c -73.09957,-0.11736 -135.0083,-0.42065 -137.57497,-0.67398 z M 441.93614,341.63167 295.20558,87.333336 l 4.73055,-0.434497 c 6.61785,-0.607847 29.1168,2.119528 43.39722,5.260712 52.71228,11.594829 101.72848,43.817319 132.8482,87.332349 9.74659,13.62875 116.80334,192.96118 125.90618,210.90739 13.99277,27.58667 21.52041,57.01441 22.82336,89.22309 1.56536,38.69558 -4.70759,69.68661 -21.19472,104.71097 -5.41139,11.49564 -5.56195,11.66616 -10.27079,11.63166 l -4.77889,-0.035 z m -335.26947,60.54497 c 0,-1.33641 139.88509,-234.8433 140.68567,-234.8433 0.66838,0 124.18575,212.45658 135.46086,233.00001 1.21595,2.21548 -5.7258,2.33333 -137.43295,2.33333 -76.29247,0 -138.71358,-0.22052 -138.71358,-0.49004 z"
       style="fill:#13aeef;stroke-width:1.33333" />
  </g>
</svg>
