<?xml version="1.0" encoding="UTF-8" standalone="no"?>
<svg
   xmlns:dc="http://purl.org/dc/elements/1.1/"
   xmlns:cc="http://creativecommons.org/ns#"
   xmlns:rdf="http://www.w3.org/1999/02/22-rdf-syntax-ns#"
   xmlns:svg="http://www.w3.org/2000/svg"
   xmlns="http://www.w3.org/2000/svg"
   xmlns:sodipodi="http://sodipodi.sourceforge.net/DTD/sodipodi-0.dtd"
   xmlns:inkscape="http://www.inkscape.org/namespaces/inkscape"
   inkscape:version="1.0 (4035a4fb49, 2020-05-01)"
   version="1.1"
   id="svg39"
   width="800"
   height="800"
   viewBox="0 0 800 800"
   sodipodi:docname="github_icon.svg">
  <metadata
     id="metadata45">
    <rdf:RDF>
      <cc:Work
         rdf:about="">
        <dc:format>image/svg+xml</dc:format>
        <dc:type
           rdf:resource="http://purl.org/dc/dcmitype/StillImage" />
        <dc:title></dc:title>
      </cc:Work>
    </rdf:RDF>
  </metadata>
  <defs
     id="defs43" />
  <sodipodi:namedview
     inkscape:document-rotation="0"
     inkscape:current-layer="layer2"
     inkscape:window-maximized="1"
     inkscape:window-y="-9"
     inkscape:window-x="-9"
     inkscape:cy="400"
     inkscape:cx="400"
     inkscape:zoom="0.91875"
     showgrid="false"
     id="namedview41"
     inkscape:window-height="1001"
     inkscape:window-width="1920"
     inkscape:pageshadow="2"
     inkscape:pageopacity="0"
     guidetolerance="10"
     gridtolerance="10"
     objecttolerance="10"
     borderopacity="1"
     bordercolor="#666666"
     pagecolor="#ffffff" />
  <g
     inkscape:label="Image 1"
     id="layer2"
     inkscape:groupmode="layer">
    <path
       id="path51"
       d="M 280,736.08443 C 223.43413,713.35771 178.32859,681.18417 141.80383,637.50988 96.39032,583.20691 70.025149,522.42544 60.519712,450.11993 57.205233,424.90752 58.542587,373.64071 63.174832,348.33712 72.433753,297.76036 89.112437,255.30116 115.67868,214.6772 192.22176,97.630811 326.42881,39.536749 462,64.765473 c 54.14808,10.076531 105.95041,34.238014 150.19112,70.051677 66.27453,53.65045 109.92564,129.87833 124.74931,217.84952 3.26037,19.34873 3.59628,24.5583 3.61078,56 0.0147,31.73374 -0.29269,36.47153 -3.6327,56 -4.01908,23.49884 -8.3897,41.00866 -14.3443,57.467 -2.14914,5.94017 -3.90754,11.19568 -3.90754,11.67889 0,2.08421 -12.69764,30.4872 -18.26394,40.85411 -17.64428,32.86141 -34.78606,55.78302 -62.36601,83.39442 -36.55807,36.59975 -74.79171,61.66388 -119.64516,78.4336 -14.31913,5.3536 -17.99473,5.78476 -24.20241,2.83903 -8.35839,-3.96631 -8.1209,-2.11627 -8.90058,-69.33372 -0.6776,-58.41589 -0.85598,-61.87243 -3.75046,-72.66667 -3.0694,-11.44656 -10.82763,-26.46708 -16.16566,-31.29793 l -2.90104,-2.6254 11.75303,-1.69671 c 27.45073,-3.96286 58.10345,-13.61722 74.20284,-23.37084 43.00199,-26.05222 64.97651,-67.04032 68.86909,-128.45845 2.703,-42.64847 -4.89297,-74.58499 -23.9156,-100.55067 -10.79102,-14.72964 -9.98425,-12.27232 -7.3356,-22.34298 3.5273,-13.41144 4.18496,-41.11608 1.30984,-55.17842 -1.25329,-6.12989 -2.5595,-12.64526 -2.9027,-14.4786 -0.34319,-1.83333 -1.75163,-5.88333 -3.12984,-9 l -2.50586,-5.66666 h -7.30302 c -18.01734,0 -47.52168,11.30697 -74.41956,28.51986 l -11.57266,7.40575 -15.55468,-3.29385 c -34.48053,-7.30159 -74.30905,-9.60534 -104.47578,-6.04306 -11.03608,1.30322 -38.87914,6.3182 -48.15758,8.67396 -2.6038,0.66111 -5.95964,-0.82529 -15.33333,-6.79154 -27.59337,-17.56288 -55.95529,-28.47112 -74.0262,-28.47112 h -7.68425 l -2.15124,5.37646 c -8.2677,20.663 -10.59398,55.60774 -5.13304,77.10699 l 2.8322,11.15012 -7.04748,9.51655 c -19.02594,25.69162 -27.5342,52.84478 -27.41175,87.48157 0.0727,20.54103 2.26368,39.29904 6.67092,57.11039 11.4426,46.24392 36.80047,77.12376 78.50651,95.6022 16.19752,7.17653 49.37788,15.79629 65.111,16.91485 5.05617,0.35948 5.32176,1.09972 1.60226,4.46581 -5.53897,5.01271 -11.86229,17.60087 -15.07898,30.01852 l -3.2608,12.58791 -7.13803,2.86945 c -8.37153,3.36532 -12.91455,4.27964 -26.45779,5.32486 -26.40222,2.0376 -46.10026,-8.86603 -63.35897,-35.07163 -9.67648,-14.69276 -16.73563,-22.31895 -26.57865,-28.71363 -13.52326,-8.7856 -32.48062,-12.16413 -40.13026,-7.15189 -6.07733,3.98203 -3.0724,10.42781 8.39691,18.01191 15.64839,10.34749 25.38383,22.79258 37.07157,47.38969 6.28898,13.23527 10.18031,19.55832 15.67731,25.47415 20.63487,22.20714 50.77825,29.19977 96.58876,22.40657 l 5.66667,-0.84031 v 33.52755 c 0,37.39001 -0.61035,40.74807 -8.2531,45.40773 -6.25556,3.8139 -11.94496,3.26506 -26.41357,-2.54806 z m -6.52641,-103.24876 c -3.4034,-4.10086 2.7911,-8.86758 8.97368,-6.90531 6.48441,2.05808 4.10406,8.73631 -3.11394,8.73631 -2.38708,0 -5.02396,-0.82395 -5.85974,-1.831 z M 300.26667,630.4 c -2.48332,-2.48332 -1.90943,-4.80245 1.78794,-7.22507 2.71307,-1.77766 4.0411,-1.92228 6.66667,-0.72598 4.0744,1.85642 4.19677,4.75681 0.31537,7.47545 -3.54842,2.48541 -6.59496,2.65063 -8.76998,0.4756 z m -53.68922,-2.48921 c -2.19072,-2.19072 -2.43068,-3.14775 -1.17008,-4.66667 2.28348,-2.75143 8.4481,-2.35045 11.23666,0.73087 5.08508,5.61894 -4.5977,9.40468 -10.06658,3.9358 z m -22.48068,-14.0906 c -3.10025,-3.94132 -3.20142,-4.39747 -1.5528,-7.00066 1.72816,-2.72877 7.91928,-0.72477 9.67666,3.13223 3.25682,7.14796 -3.14592,10.19684 -8.12386,3.86843 z m -14.2305,-17.50727 c -0.80688,-0.53877 -2.21546,-2.39959 -3.13016,-4.13513 -1.372,-2.60326 -1.31748,-3.50118 0.3115,-5.13018 2.644,-2.64398 7.00475,-0.3434 8.17315,4.31187 1.3044,5.19716 -1.33403,7.63797 -5.35449,4.95344 z M 193.91581,574.05864 C 191.53003,570.41747 192.28664,568 195.81203,568 c 3.21302,0 5.5213,2.61989 5.5213,6.26667 0,4.19977 -4.61421,4.07037 -7.41752,-0.20803 z m -13.64914,-12.99197 c -3.56051,-3.56051 -0.50844,-7.19264 4.06666,-4.83959 3.12054,1.60495 3.07048,6.43959 -0.0667,6.43959 -1.32,0 -3.12,-0.72 -4,-1.6 z"
       style="fill:#fefefe;stroke-width:1.33333" />
  </g>
</svg>
