<?xml version="1.0" encoding="UTF-8" standalone="no"?>
<svg
   xmlns:dc="http://purl.org/dc/elements/1.1/"
   xmlns:cc="http://creativecommons.org/ns#"
   xmlns:rdf="http://www.w3.org/1999/02/22-rdf-syntax-ns#"
   xmlns:svg="http://www.w3.org/2000/svg"
   xmlns="http://www.w3.org/2000/svg"
   xmlns:sodipodi="http://sodipodi.sourceforge.net/DTD/sodipodi-0.dtd"
   xmlns:inkscape="http://www.inkscape.org/namespaces/inkscape"
   inkscape:version="1.0 (4035a4fb49, 2020-05-01)"
   sodipodi:docname="gmail_icon.svg"
   viewBox="0 0 682.66669 682.66669"
   height="682.66669"
   width="682.66669"
   id="svg93"
   version="1.1">
  <metadata
     id="metadata99">
    <rdf:RDF>
      <cc:Work
         rdf:about="">
        <dc:format>image/svg+xml</dc:format>
        <dc:type
           rdf:resource="http://purl.org/dc/dcmitype/StillImage" />
        <dc:title></dc:title>
      </cc:Work>
    </rdf:RDF>
  </metadata>
  <defs
     id="defs97" />
  <sodipodi:namedview
     inkscape:current-layer="layer4"
     inkscape:window-maximized="1"
     inkscape:window-y="-9"
     inkscape:window-x="-9"
     inkscape:cy="356.63896"
     inkscape:cx="54.722056"
     inkscape:zoom="48.724075"
     showgrid="false"
     id="namedview95"
     inkscape:window-height="1001"
     inkscape:window-width="1920"
     inkscape:pageshadow="2"
     inkscape:pageopacity="0"
     guidetolerance="10"
     gridtolerance="10"
     objecttolerance="10"
     borderopacity="1"
     bordercolor="#666666"
     pagecolor="#ffffff" />
  <g
     inkscape:label="Image 1"
     id="layer4"
     inkscape:groupmode="layer">
    <g
       id="g106">
      <path
         id="path114"
         d="m 76.318829,459.02618 c -16.315708,-35.1625 -26.335447,-80.24049 -26.308434,-118.3595 0.027,-38.09747 9.88011,-82.62668 26.006876,-117.53299 2.957614,-6.40175 5.603576,-11.86564 5.879916,-12.14198 0.547968,-0.54797 93.565553,69.72697 94.680823,71.53151 0.37597,0.60834 -0.78844,7.03948 -2.5876,14.29143 -4.39087,17.69852 -6.49035,38.40737 -5.38775,53.14366 0.97027,12.96782 4.8908,34.35197 7.84948,42.81425 l 1.82769,5.22745 -45.85449,34.66667 c -25.21996,19.06667 -46.940434,35.42844 -48.267709,36.3595 -2.194539,1.53942 -2.904894,0.63321 -7.838802,-10 z"
         style="fill:#f9ba05;stroke-width:1.33333" />
      <path
         id="path112"
         d="m 497.00415,524.98728 -46.32919,-34.98726 5.65168,-4.66667 c 24.54386,-20.26619 40.57088,-42.57089 49.54215,-68.94752 1.73559,-5.10284 3.57708,-11.77254 4.09221,-14.82156 l 0.9366,-5.54367 -81.78213,-0.34363 -81.78212,-0.34362 -0.34846,-53.66667 -0.34846,-53.66667 h 139.89189 139.89189 l 2.05041,12.33333 c 4.30253,25.87996 5.17545,36.6223 4.36843,53.7591 -3.26919,69.41988 -21.34627,124.24371 -56.26523,170.64015 -7.37299,9.79639 -30.77035,35.27814 -32.37091,35.2547 -0.47825,-0.007 -21.71769,-15.757 -47.19876,-35.00001 z"
         style="fill:#4184f2;stroke-width:1.33333" />
      <path
         id="path110"
         d="m 49.438598,356.55557 c 0.06397,-1.55326 0.379921,-1.8692 0.805556,-0.80556 0.385161,0.9625 0.337792,2.11251 -0.105267,2.55556 -0.443056,0.44306 -0.758188,-0.34445 -0.700293,-1.75 z m 0,-32 c 0.06397,-1.55327 0.379921,-1.8692 0.805556,-0.80556 0.385161,0.96249 0.337792,2.11249 -0.105267,2.55556 -0.443056,0.44305 -0.758188,-0.34445 -0.700293,-1.75 z m 80.669592,-77.67721 c -25.60717,-19.54977 -46.77103,-36.18659 -47.030798,-36.97073 -0.259769,-0.78414 3.291548,-7.69144 7.891818,-15.34956 23.06274,-38.39274 55.38305,-71.82554 93.0308,-96.232963 48.06152,-31.158773 105.79299,-48.139403 163.33334,-48.041435 24.43638,0.0416 39.69873,1.596862 63.33333,6.453766 47.1436,9.687996 94.74191,33.270248 130.03791,64.426392 l 5.09472,4.49716 -9.23297,8.86389 c -5.07815,4.87515 -23.82976,22.76378 -41.67026,39.75253 l -32.43728,30.88861 -12.22938,-9.29943 c -40.90969,-31.10837 -97.16518,-41.23512 -150.13318,-27.02601 -52.75978,14.15327 -99.5645,55.75347 -118.93579,105.71058 -1.73078,4.46353 -3.44992,8.06077 -3.82032,7.99386 -0.3704,-0.0669 -21.62478,-16.1169 -47.23194,-35.66666 z"
         style="fill:#ea4234;stroke-width:1.33333" />
      <path
         id="path108"
         d="M 322.13329,629.22789 C 234.09414,622.49831 151.17497,574.52831 101.05952,501.33335 89.772711,484.84866 81.94394,470.62507 83.554803,469.53015 c 0.698691,-0.47491 22.133937,-16.66423 47.633877,-35.97626 25.49994,-19.31202 46.48983,-34.91202 46.64419,-34.66666 0.15438,0.24536 2.80188,6.33381 5.88335,13.52989 21.87807,51.09123 69.5904,90.01168 125.61712,102.46984 12.20202,2.71326 17.42474,3.10288 40.66667,3.03387 23.88007,-0.0709 28.28862,-0.44839 42.188,-3.61219 17.73496,-4.03685 35.27898,-10.69118 48.39575,-18.35618 4.97491,-2.90718 9.55283,-5.28578 10.17315,-5.28578 1.36549,0 91.08444,67.81669 91.62091,69.25433 0.87629,2.34838 -23.36115,20.62724 -41.04447,30.95398 -50.38828,29.4259 -115.02055,43.25869 -179.20006,38.3529 z M 632.21054,366.66668 c 0,-1.83333 0.30264,-2.58333 0.67252,-1.66667 0.36988,0.91667 0.36988,2.41667 0,3.33334 -0.36988,0.91666 -0.67252,0.16666 -0.67252,-1.66667 z m 0,-40 c 0,-1.83334 0.30264,-2.58334 0.67252,-1.66667 0.36988,0.91667 0.36988,2.41667 0,3.33333 -0.36988,0.91667 -0.67252,0.16667 -0.67252,-1.66666 z"
         style="fill:#33a752;stroke-width:1.33333" />
    </g>
  </g>
</svg>
