<?xml version="1.0" encoding="UTF-8" standalone="no"?>
<svg
   xmlns:dc="http://purl.org/dc/elements/1.1/"
   xmlns:cc="http://creativecommons.org/ns#"
   xmlns:rdf="http://www.w3.org/1999/02/22-rdf-syntax-ns#"
   xmlns:svg="http://www.w3.org/2000/svg"
   xmlns="http://www.w3.org/2000/svg"
   xmlns:sodipodi="http://sodipodi.sourceforge.net/DTD/sodipodi-0.dtd"
   xmlns:inkscape="http://www.inkscape.org/namespaces/inkscape"
   inkscape:version="1.0 (4035a4fb49, 2020-05-01)"
   sodipodi:docname="linkedin_icon.svg"
   viewBox="0 0 800 800"
   height="800"
   width="800"
   id="svg62"
   version="1.1">
  <metadata
     id="metadata68">
    <rdf:RDF>
      <cc:Work
         rdf:about="">
        <dc:format>image/svg+xml</dc:format>
        <dc:type
           rdf:resource="http://purl.org/dc/dcmitype/StillImage" />
        <dc:title></dc:title>
      </cc:Work>
    </rdf:RDF>
  </metadata>
  <defs
     id="defs66" />
  <sodipodi:namedview
     inkscape:current-layer="layer4"
     inkscape:window-maximized="1"
     inkscape:window-y="-9"
     inkscape:window-x="-9"
     inkscape:cy="306.47959"
     inkscape:cx="481.90616"
     inkscape:zoom="1.2993087"
     showgrid="false"
     id="namedview64"
     inkscape:window-height="1001"
     inkscape:window-width="1920"
     inkscape:pageshadow="2"
     inkscape:pageopacity="0"
     guidetolerance="10"
     gridtolerance="10"
     objecttolerance="10"
     borderopacity="1"
     bordercolor="#666666"
     pagecolor="#ffffff" />
  <g
     inkscape:label="Image 2"
     id="layer4"
     inkscape:groupmode="layer">
    <path
       id="path76"
       d="M 95.048052,739.40495 C 77.121911,733.78363 63.498108,718.44545 59.987115,699.93205 58.193627,690.47503 58.176712,109.61416 59.969649,100.16004 63.023049,84.059524 74.04522,69.936001 89.04258,62.906741 l 7.624087,-3.573408 H 400 703.33333 l 7.6241,3.573408 c 15.02777,7.04352 26.0264,21.043366 29.02246,36.941912 1.82399,9.678897 1.87282,590.382057 0.0504,599.991307 -3.0534,16.10052 -14.07556,30.22404 -29.07292,37.25329 l -7.62404,3.57342 L 402,740.91675 c -246.56651,0.20464 -302.354507,-0.0701 -306.951948,-1.5118 z M 261.00533,477.66667 261.344,316 H 211.33867 161.33333 V 478.01623 640.03245 L 211,639.68289 l 49.66667,-0.34956 z m 163.66424,160.66666 c 0.32224,-0.91666 0.84226,-43.36666 1.15559,-94.33333 0.31333,-50.96667 0.93135,-95.23705 1.37336,-98.37864 3.52176,-25.03048 19.79307,-44.17535 41.68413,-49.04564 15.14494,-3.36943 30.66028,-2.19096 41.19968,3.12931 12.4369,6.27812 22.53463,19.46345 25.24307,32.96164 0.44143,2.2 1.15988,5.5 1.59655,7.33333 0.43668,1.83333 1.15788,47.43333 1.60266,101.33333 l 0.80872,98 49.44779,0.34935 49.44777,0.34933 0.83208,-86.34933 c 1.14587,-118.91229 -0.40578,-144.7592 -10.50217,-174.94205 -10.91993,-32.64479 -27.05535,-50.90354 -54.93575,-62.16492 -23.9236,-9.66318 -60.76389,-12.5613 -83.51644,-6.57 -24.92916,6.56444 -52.17945,25.78265 -62.85396,44.32762 -4.97818,8.64868 -5.91932,5.94582 -5.91932,-17 V 316 h -48 -48 v 162 162 h 49.37518 c 38.29878,0 49.50661,-0.37388 49.96106,-1.66667 z M 218.46439,269.27304 c 23.43436,-3.8026 43.40128,-22.06601 48.244,-44.12799 2.27626,-10.37 1.0294,-26.57101 -2.80747,-36.47838 -4.37135,-11.28746 -18.74509,-25.7065 -29.90092,-29.99514 -11.96743,-4.60064 -29.685,-5.21452 -41.07776,-1.42325 -20.49076,6.81889 -37.11003,26.71453 -38.79088,46.43823 -0.32315,3.79181 -0.94468,7.47209 -1.3812,8.17838 -0.43651,0.7063 -0.19801,1.65231 0.53,2.10224 0.72801,0.44994 1.22977,3.3414 1.11504,6.42547 -0.42331,11.37853 11.30105,29.59816 25.15661,39.09335 8.752,5.99772 20.46042,10.50388 24.52831,9.4401 1.42115,-0.37164 2.91989,-0.132 3.33057,0.53246 0.91924,1.48736 0.72435,1.49064 11.0537,-0.18547 z"
       style="fill:#2665b0;stroke-width:1.33333" />
    <path
       id="path80"
       d="m 208.29913,269.53687 c -0.26162,-0.4233 -1.95089,-0.76964 -3.75393,-0.76964 -8.90784,0 -22.38744,-6.7245 -32.317,-16.12182 -9.83767,-9.31036 -16.40804,-21.349 -17.3616,-31.81103 -0.32461,-3.5614 -0.82094,-6.84862 -1.10296,-7.30493 -0.68247,-1.10426 1.47898,-15.28101 3.04171,-19.95031 5.67495,-16.95626 22.03081,-32.16308 39.62997,-36.84587 10.03778,-2.67085 29.06578,-1.30021 38.23071,2.75387 8.48568,3.75362 20.33793,14.58092 25.79513,23.56445 4.82583,7.94417 6.32958,14.86821 6.33013,29.1471 5.3e-4,13.59898 -0.58307,16.34608 -5.47734,25.78294 -6.69409,12.90716 -20.02906,24.00138 -34.57028,28.76123 -3.19225,1.04494 -15.49609,3.55876 -17.43707,3.5626 -0.2925,5.8e-4 -0.74586,-0.34529 -1.00747,-0.76859 z"
       style="fill:#ffffff;stroke-width:0.76964" />
    <path
       id="path82"
       d="M 161.73591,478.18828 V 316.48491 h 49.73253 49.73254 l -0.56404,161.04718 c -0.31023,88.57595 -0.61083,161.09163 -0.66799,161.14597 -0.0572,0.0543 -22.18299,0.34962 -49.16849,0.65619 l -49.06455,0.55739 z"
       style="fill:#ffffff;stroke-width:0.76964" />
    <path
       id="path84"
       d="M 325.66923,478.10932 V 316.48491 h 47.71768 47.71769 l 0.0767,19.0486 c 0.0422,10.47672 0.31713,19.91261 0.61098,20.96864 1.01454,3.64615 2.7848,2.66429 7.22326,-4.0063 4.69949,-7.06292 15.81992,-18.25545 23.64427,-23.79757 12.95422,-9.17571 29.01688,-16.54525 41.94538,-19.24452 19.36976,-4.0441 49.54091,-1.98747 71.1917,4.85281 15.17102,4.79308 30.98806,14.37582 39.99516,24.23102 14.34613,15.69696 25.50038,42.50592 29.57124,71.07377 2.98597,20.95442 3.16937,28.92637 3.00774,130.7391 -0.0863,54.33947 -0.32242,98.96462 -0.5248,99.167 -0.20238,0.20238 -22.34267,0.11234 -49.20067,-0.20007 l -48.83271,-0.56802 -0.49787,-56.6536 c -0.27383,-31.15947 -0.82175,-76.04852 -1.2176,-99.75343 -0.65376,-39.1495 -0.86221,-43.68113 -2.27431,-49.44194 -4.00266,-16.32933 -15.33565,-29.84967 -29.48459,-35.17532 -14.07412,-5.29748 -34.97653,-4.18563 -48.67601,2.5892 -13.39217,6.62286 -22.76164,17.85248 -28.10615,33.68614 l -2.54877,7.551 -0.64063,28.8615 c -0.35234,15.87383 -0.90681,59.92203 -1.23213,97.8849 -0.32534,37.96286 -0.87394,69.30645 -1.21911,69.65242 -1.19257,1.19528 -15.6673,1.62952 -56.87833,1.70636 l -41.36815,0.0771 z"
       style="fill:#ffffff;stroke-width:0.76964" />
  </g>
</svg>
