<?xml version="1.0" encoding="UTF-8" standalone="no"?>
<svg
   xmlns:dc="http://purl.org/dc/elements/1.1/"
   xmlns:cc="http://creativecommons.org/ns#"
   xmlns:rdf="http://www.w3.org/1999/02/22-rdf-syntax-ns#"
   xmlns:svg="http://www.w3.org/2000/svg"
   xmlns="http://www.w3.org/2000/svg"
   xmlns:sodipodi="http://sodipodi.sourceforge.net/DTD/sodipodi-0.dtd"
   xmlns:inkscape="http://www.inkscape.org/namespaces/inkscape"
   inkscape:version="1.0 (4035a4fb49, 2020-05-01)"
   version="1.1"
   id="svg10"
   width="800"
   height="800"
   viewBox="0 0 800 800"
   sodipodi:docname="resume_icon.svg">
  <metadata
     id="metadata16">
    <rdf:RDF>
      <cc:Work
         rdf:about="">
        <dc:format>image/svg+xml</dc:format>
        <dc:type
           rdf:resource="http://purl.org/dc/dcmitype/StillImage" />
        <dc:title></dc:title>
      </cc:Work>
    </rdf:RDF>
  </metadata>
  <defs
     id="defs14" />
  <sodipodi:namedview
     inkscape:document-rotation="0"
     inkscape:current-layer="layer1"
     inkscape:window-maximized="1"
     inkscape:window-y="-9"
     inkscape:window-x="-9"
     inkscape:cy="400"
     inkscape:cx="400"
     inkscape:zoom="0.91875"
     showgrid="false"
     id="namedview12"
     inkscape:window-height="1001"
     inkscape:window-width="1920"
     inkscape:pageshadow="2"
     inkscape:pageopacity="0"
     guidetolerance="10"
     gridtolerance="10"
     objecttolerance="10"
     borderopacity="1"
     bordercolor="#666666"
     pagecolor="#ffffff" />
  <g
     inkscape:label="Image 1"
     id="layer1"
     inkscape:groupmode="layer">
    <path
       id="path23"
       d="m 156.93151,740.00804 c -15.78579,-2.04801 -34.42839,-14.51612 -43.87191,-29.34137 -2.10206,-3.3 -5.00041,-9.8132 -6.44077,-14.47379 -2.56881,-8.31191 -2.61853,-13.96593 -2.603,-296 0.0132,-239.30943 0.32241,-288.67768 1.84407,-294.39263 5.87225,-22.054543 25.1048,-40.511234 47.06235,-45.163803 13.36498,-2.831895 372.57483,-2.877918 385.91918,-0.04944 17.81704,3.776508 18.26238,4.147253 85.54932,71.220443 34.3149,34.2059 64.22817,65.04367 66.47392,68.52837 2.24574,3.4847 5.2199,9.98816 6.60925,14.45213 2.43875,7.83569 2.52553,16.14483 2.51025,240.33084 -0.0133,189.45553 -0.34373,233.44212 -1.79664,238.88121 -5.42474,20.30802 -21.05208,36.87379 -41.38196,43.867 l -8.1389,2.79967 -242,0.17246 c -133.1,0.0948 -245.48083,-0.27914 -249.73516,-0.83109 z M 636,484.66667 V 293.33333 h -72.70949 c -58.67415,0 -73.55642,-0.35386 -77.09698,-1.8332 -6.25926,-2.61529 -13.87064,-9.68396 -17.27208,-16.04056 -2.89078,-5.40226 -2.9255,-6.23314 -3.30802,-79.15966 l -0.38656,-73.7001 -148.28011,0.36676 -148.28009,0.36676 -0.3365,276.33334 L 167.99368,676 H 401.99684 636 Z m -341.97412,60.57638 c -9.29707,-1.55393 -21.70296,-6.26048 -28.15649,-10.68201 -13.48411,-9.23841 -25.70891,-27.63343 -30.05707,-45.22771 -1.09203,-4.41877 -1.81232,-14.75222 -1.81232,-26 0,-21.22684 1.43981,-28.70409 8.34425,-43.33333 11.9787,-25.38067 36.76718,-38.70001 71.91896,-38.64352 25.99527,0.0417 42.02718,5.43533 55.16267,18.55815 8.58313,8.57485 19.94728,29.24366 16.95669,30.84042 -2.54354,1.35808 -41.11129,9.62735 -41.78052,8.95811 -0.31568,-0.31568 -1.97636,-3.23028 -3.69037,-6.47689 -4.69544,-8.89387 -12.33395,-13.65487 -22.99705,-14.33384 -10.99462,-0.70008 -18.7631,2.09517 -24.99576,8.99398 -7.22888,8.00152 -9.49047,16.61923 -9.47482,36.10359 0.0152,18.93879 2.32814,29.14779 8.17892,36.10107 10.36599,12.31926 34.33863,12.37801 44.66195,0.10946 3.14009,-3.7318 9.04841,-16.96128 9.04841,-20.26054 0,-0.70583 0.36563,-1.28332 0.81251,-1.28332 1.87397,0 41.27745,12.37656 42.24236,13.26824 0.58017,0.53614 -0.37983,4.92736 -2.13335,9.75824 -8.3961,23.13101 -25.13568,38.33118 -47.41342,43.05318 -9.54206,2.02254 -34.06082,2.2943 -44.81555,0.49672 z M 456.88731,543 c -0.81091,-1.34388 -58.40258,-153.69972 -59.22119,-156.66667 -0.59713,-2.1642 1.22795,-2.33292 25.17837,-2.3277 l 25.82218,0.005 17.21406,55.26205 c 9.46774,30.39412 17.61438,55.90975 18.10363,56.7014 0.48927,0.79164 8.73137,-23.92881 18.31579,-54.93434 l 17.42622,-56.3734 25.2952,-0.36151 25.2952,-0.36152 -28.36782,76.36152 c -15.6023,41.99883 -29.00872,78.01151 -29.79204,80.02817 L 510.73267,544 h -26.62098 c -14.64154,0 -26.89252,-0.45 -27.22438,-1 z M 629.33333,228.99324 c 0,-0.18705 -22.2,-22.534 -49.33333,-49.65991 l -49.33333,-49.31982 v 49.65992 49.6599 H 580 c 27.13333,0 49.33333,-0.15304 49.33333,-0.34009 z"
       style="fill:#fdfdfe;stroke-width:1.33333" />
  </g>
</svg>
